<mxfile host="app.diagrams.net" modified="2020-12-21T03:43:48.471Z" agent="5.0 (Windows NT 10.0; Win64; x64) AppleWebKit/537.36 (KHTML, like Gecko) Chrome/87.0.4280.88 Safari/537.36 Edg/87.0.664.66" etag="7_AH48vjxotEwiVaZk_o" version="14.1.1" type="github">
  <diagram id="kgpKYQtTHZ0yAKxKKP6v" name="Page-1">
    <mxGraphModel dx="1038" dy="500" grid="1" gridSize="10" guides="1" tooltips="1" connect="1" arrows="1" fold="1" page="1" pageScale="1" pageWidth="850" pageHeight="1100" math="0" shadow="0">
      <root>
        <mxCell id="0" />
        <mxCell id="1" parent="0" />
        <mxCell id="KwdKWLrh2gG3OE4VAdlp-1" value="User" style="shape=umlActor;verticalLabelPosition=bottom;verticalAlign=top;html=1;outlineConnect=0;" parent="1" vertex="1">
          <mxGeometry x="40" y="20" width="30" height="60" as="geometry" />
        </mxCell>
        <mxCell id="KwdKWLrh2gG3OE4VAdlp-2" value="" style="shape=umlBoundary;whiteSpace=wrap;html=1;" parent="1" vertex="1">
          <mxGeometry x="480" y="30" width="60" height="50" as="geometry" />
        </mxCell>
        <mxCell id="KwdKWLrh2gG3OE4VAdlp-3" value="" style="shape=umlBoundary;whiteSpace=wrap;html=1;" parent="1" vertex="1">
          <mxGeometry x="250" y="30" width="60" height="50" as="geometry" />
        </mxCell>
        <mxCell id="KwdKWLrh2gG3OE4VAdlp-4" value="" style="ellipse;shape=umlControl;whiteSpace=wrap;html=1;" parent="1" vertex="1">
          <mxGeometry x="710" y="30" width="50" height="60" as="geometry" />
        </mxCell>
        <mxCell id="KwdKWLrh2gG3OE4VAdlp-6" value="" style="endArrow=none;dashed=1;html=1;" parent="1" edge="1">
          <mxGeometry width="50" height="50" relative="1" as="geometry">
            <mxPoint x="740" y="310" as="sourcePoint" />
            <mxPoint x="740" y="110" as="targetPoint" />
          </mxGeometry>
        </mxCell>
        <mxCell id="KwdKWLrh2gG3OE4VAdlp-7" value="" style="endArrow=none;dashed=1;html=1;" parent="1" edge="1">
          <mxGeometry width="50" height="50" relative="1" as="geometry">
            <mxPoint x="515" y="310" as="sourcePoint" />
            <mxPoint x="514.5" y="110" as="targetPoint" />
          </mxGeometry>
        </mxCell>
        <mxCell id="KwdKWLrh2gG3OE4VAdlp-8" value="" style="endArrow=none;dashed=1;html=1;entryX=0.5;entryY=1;entryDx=0;entryDy=0;" parent="1" target="KwdKWLrh2gG3OE4VAdlp-15" edge="1">
          <mxGeometry width="50" height="50" relative="1" as="geometry">
            <mxPoint x="280" y="310" as="sourcePoint" />
            <mxPoint x="230" y="100" as="targetPoint" />
          </mxGeometry>
        </mxCell>
        <mxCell id="KwdKWLrh2gG3OE4VAdlp-9" value="" style="endArrow=none;dashed=1;html=1;" parent="1" edge="1">
          <mxGeometry width="50" height="50" relative="1" as="geometry">
            <mxPoint x="50" y="310" as="sourcePoint" />
            <mxPoint x="50" y="110" as="targetPoint" />
          </mxGeometry>
        </mxCell>
        <mxCell id="KwdKWLrh2gG3OE4VAdlp-13" value=":C_NewsPage" style="text;html=1;strokeColor=none;fillColor=none;align=center;verticalAlign=middle;whiteSpace=wrap;rounded=0;" parent="1" vertex="1">
          <mxGeometry x="710" y="90" width="40" height="20" as="geometry" />
        </mxCell>
        <mxCell id="KwdKWLrh2gG3OE4VAdlp-14" value=":V_NewsPage" style="text;html=1;strokeColor=none;fillColor=none;align=center;verticalAlign=middle;whiteSpace=wrap;rounded=0;" parent="1" vertex="1">
          <mxGeometry x="495" y="90" width="40" height="20" as="geometry" />
        </mxCell>
        <mxCell id="KwdKWLrh2gG3OE4VAdlp-15" value=":V_HomePage" style="text;html=1;strokeColor=none;fillColor=none;align=center;verticalAlign=middle;whiteSpace=wrap;rounded=0;" parent="1" vertex="1">
          <mxGeometry x="260" y="90" width="40" height="20" as="geometry" />
        </mxCell>
        <mxCell id="KwdKWLrh2gG3OE4VAdlp-18" value="" style="html=1;points=[];perimeter=orthogonalPerimeter;" parent="1" vertex="1">
          <mxGeometry x="740" y="190" width="10" height="50" as="geometry" />
        </mxCell>
        <mxCell id="KwdKWLrh2gG3OE4VAdlp-19" value="" style="html=1;points=[];perimeter=orthogonalPerimeter;" parent="1" vertex="1">
          <mxGeometry x="510" y="210" width="10" height="50" as="geometry" />
        </mxCell>
        <mxCell id="KwdKWLrh2gG3OE4VAdlp-20" value="" style="html=1;points=[];perimeter=orthogonalPerimeter;" parent="1" vertex="1">
          <mxGeometry x="275" y="170" width="10" height="40" as="geometry" />
        </mxCell>
        <mxCell id="KwdKWLrh2gG3OE4VAdlp-21" value="" style="html=1;points=[];perimeter=orthogonalPerimeter;" parent="1" vertex="1">
          <mxGeometry x="50" y="160" width="10" height="120" as="geometry" />
        </mxCell>
        <mxCell id="KwdKWLrh2gG3OE4VAdlp-23" value="" style="endArrow=classic;html=1;" parent="1" edge="1">
          <mxGeometry width="50" height="50" relative="1" as="geometry">
            <mxPoint x="61" y="176" as="sourcePoint" />
            <mxPoint x="272" y="176" as="targetPoint" />
          </mxGeometry>
        </mxCell>
        <mxCell id="KwdKWLrh2gG3OE4VAdlp-24" value="NhanVaoTinTuc()" style="text;html=1;strokeColor=none;fillColor=none;align=center;verticalAlign=middle;whiteSpace=wrap;rounded=0;" parent="1" vertex="1">
          <mxGeometry x="130" y="150" width="40" height="20" as="geometry" />
        </mxCell>
        <mxCell id="KwdKWLrh2gG3OE4VAdlp-25" value="" style="endArrow=classic;html=1;exitX=1.18;exitY=0.545;exitDx=0;exitDy=0;exitPerimeter=0;entryX=-0.36;entryY=0.017;entryDx=0;entryDy=0;entryPerimeter=0;" parent="1" source="KwdKWLrh2gG3OE4VAdlp-20" target="KwdKWLrh2gG3OE4VAdlp-18" edge="1">
          <mxGeometry width="50" height="50" relative="1" as="geometry">
            <mxPoint x="400" y="300" as="sourcePoint" />
            <mxPoint x="450" y="250" as="targetPoint" />
          </mxGeometry>
        </mxCell>
        <mxCell id="KwdKWLrh2gG3OE4VAdlp-26" value="YeuCauHienThiTrangTinTuc()" style="text;html=1;strokeColor=none;fillColor=none;align=center;verticalAlign=middle;whiteSpace=wrap;rounded=0;" parent="1" vertex="1">
          <mxGeometry x="520" y="170" width="40" height="20" as="geometry" />
        </mxCell>
        <mxCell id="KwdKWLrh2gG3OE4VAdlp-27" value="HienThiTrangTinTuc()" style="html=1;verticalAlign=bottom;endArrow=open;dashed=1;endSize=8;" parent="1" edge="1">
          <mxGeometry relative="1" as="geometry">
            <mxPoint x="738" y="233" as="sourcePoint" />
            <mxPoint x="520" y="233" as="targetPoint" />
          </mxGeometry>
        </mxCell>
        <mxCell id="KwdKWLrh2gG3OE4VAdlp-28" value="HienThiTrangTinTuc()" style="html=1;verticalAlign=bottom;endArrow=open;dashed=1;endSize=8;exitX=-0.32;exitY=0.836;exitDx=0;exitDy=0;exitPerimeter=0;" parent="1" source="KwdKWLrh2gG3OE4VAdlp-19" target="KwdKWLrh2gG3OE4VAdlp-21" edge="1">
          <mxGeometry relative="1" as="geometry">
            <mxPoint x="460" y="270" as="sourcePoint" />
            <mxPoint x="380" y="270" as="targetPoint" />
          </mxGeometry>
        </mxCell>
      </root>
    </mxGraphModel>
  </diagram>
</mxfile>
